P2
# CREATOR: Image Processing using C-Ansi - ByDu
128  30
255
 36  36  36  36  36  36  36  36  36  42  33  59  58 126  58  58  59  59  59  59  59  59  43  33  37  35  36  36  36  36  36  36  36  36  36  35  35  35  35  35  35  35  35  35  35  35  35  42  42  42  42  42  42  42  42  42  42  42  35  35  35  42  42  42  42  42  42  35  35  35  36  36  36  36  64  64  64  36  36  36  36  36  36  36  36  35  35  35  35  35  35  35  35  35  35  35  35  35  35  35  35  35  35  35  36  36  36  36  36  36  36  36  36  36  36  36  35  35  35  35  35  35  35  35  35  35  35  35  36 
 36  36  36  36  36  36  36  36  35 111  43  59  58  58  59  59  59  43  43  43  61  33  42  36  35  35  35  35  36  36  35  35  35  35  35  35  35  35  35  35  35  42  35  42  42  42  42  42  42  42  42  42  42  42  42  42  35  35  35  35  35  35  35  35  35  35  35  35  36  36  36  36  36  36  36  36  36  64  64  64  36  36  36  36  36  35  35  35  35  35  35  35  35  35  35  35  35  35  35  35  35  35  35  35  36  36  35  35  35  35  35  35  35  35  35  35  35  35  35  35  35  35  35  35  35  35  35  36  36 
 36  36  36  36  36  36  36  35  42 111  33  43  43  59  59  43  43  43  33  37  35  35  35  35  35  36  36  36  35  35  35  35  35  35  35  35  35  35  35  35  35  35  42  42  42  42  42  42  42  42  42  42  42  42  42  42  42  35  35  35  35  35  35  35  35  36  36  36  35  35  35  35  35  36  36  36  36  36  36  36  36  36  36  36  36  36  36  36  35  35  35  35  35  35  35  35  36  36  35  35  35  42  35  35  35  35  35  35  35  35  35  36  35  35  35  35  35  35  35  35  35  35  35  35  35  36  36  36  36 
 36  36  36  36  36  36  35  35  35  35  35  42  37 111 111  37  42  35  35  35  35  35  35  35  36  36  35  35  35  36  36  36  36  36  36  35  35  35  35  35  35  35  42  42  42  42  42  42  42  35  35  35  35  35  42  35  35  35  35  35  36  36  36  36  35  35  35  35  35  35  35  35  35  35  36  36  36  36  36  36  36  36  36  36  36  36  36  36  36  36  36  36  36  36  35  35  35  35  35  35  35  35  35  35  35  35  35  35  35  35  35  35  35  35  35  35  35  42  35  35  35  35  35  36  36  36  36  36  36 
 36  35  35  35  35  35  35  35  35  35  35  35  35  35  35  35  35  35  35  35  35  35  35  35  35  35  35  35  42  42  35  35  35  35  35  35  35  35  35  35  35  35  35  35  42  42  35  35  35  35  35  35  35  35  35  35  35  35  35  35  36  36  36  36  36  35  35  35  35  35  35  35  35  35  35  35  35  35  35  35  36  36  36  36  36  36  36  36  36  36  36  35  35  35  42  35  35  35  35  35  35  35  35  35  35  35  35  35  35  35  35  35  35  35  35  35  35  35  35  35  35  35  36  36  36  36  36  36  36 
 36  35  36  35  35  35  35  36  36  36  36  36  36  36  36  36  36  36  35  35  35  35  35  35  42  35  42  42  42  42  35  35  35  35  35  35  35  35  35  35  35  35  35  35  35  35  35  35  35  35  35  35  35  35  35  35  35  35  35  35  35  35  35  35  35  35  35  35  35  35  35  35  35  35  35  35  35  35  35  36  36  36  36  36  36  36  36  36  36  36  36  36  35  35  35  35  35  35  35  35  35  35  35  35  35  35  35  36  36  36  36  36  36  36  36  36  36  36  36  36  36  36  36  36  36  36  36  35  35 
 35  35  35  35  35  35  35  35  36  36  36  36  36  36  36  36  36  36  35  35  35  35  35  35  42  42  42  42  42  35  35  35  35  35  35  35  35  36  36  36  36  36  36  36  36  36  36  36  36  35  35  35  35  42  42  35  42  42  42  42  35  35  35  35  35  35  35  35  42  42  35  35  35  35  36  36  36  36  35  58  59  59  43  59  33  35  36  36  36  36  64  36  36  36  36  36  36  36  35  35  35  35  36  36  35  35  36  36  36  36  36  36  36  36  36  36  36  36  36  36  36  36  36  36  36  36  36  36  35 
 35  35  35  35  35  35  35  35  36  36  36  36  36  36  36  36  36  36  35  35  35  35  35  35  35  35  42  35  35  35  35  35  36  36  36  36  36  36  36  36  36  36  36  36  36  36  36  35  35  42  42  42  42  42  42  42  37  37  37  37  42  42  42  35  35  35  35  35  35  35  36  35  36  59 126  58  59  58  58  58  58 126  45  45  45  45 126  45  45  45  44  44  36  36  36  36  36  36  36  36  36  35  35  35  35  35  35  35  36  35  35  35  35  42  42  42  42  42  35  35  35  64  64  64  36  36  36  36  36 
 36  36  36  36  35  36  36  36  36  36  36  36  36  36  36  36  36  36  36  36  35  36  36  36  36  36  36  36  36  36  36  36  36  36  36  64  64  64  64  64  36  36  36  36  36  36  35  35  42  42  42  37  37  37 111 111 111 111 111  37  37  42  42  42  42  42  42  35  35  35  36 126  58  59  59  59  59  59  58 126 126 126  58  58  58 126 126 126 126  45  44  36  36  36  35  36  36  36  35  35  35  35  37  35  37  58  45  59  35  58  33  42  42  42  42  42  42  42  42  42  64  64  64  64  36  36  36  36  36 
 36  36  36  35  35  36  36  36  36  36  36  36  36  36  36  36  36  35  35  35  36  36  36  36  36  36  36  36  36  36  36  36  36  36  36  36  36  36  36  36  36  36  36  36  35  35  35  35  42  42  42  37  37 111 111 111  37  33  37  37  37  37  37  42  42  42  42  42  42  35  58  58  59  59  59  58 126 126 126  58  58  59  59  59  43  58  58 126  45  35  42  35  43  59  58  44  45  45  45 126  45  45 126  58  45  45 126 126 126 126  58  61  61 126  36  36  36  35  35  36  36  36  36  36  36  36  36  36  36 
 36  36  36  36  36  36  36  36  35  35  35  35  36  36  36  35  36  36  36  36  36  36  36  36  36  36  36  36  36  36  35  35  36  36  36  36  36  36  36  35  35  35  35  35  35  35  35  42  42  42  42  37  37  37  61  43  33  42  42  61  42  42  42  42  42  42  42  35  35  36 126  58  58  58 126 126 126  58  59  43  43  61  43  61  43  59 126  37  36  61  59  58  58 126  58  58 126  58  58  45  45 126  59  59  43  43  59  59  58  59  58 126  58  42  64  36  36  35  36  36  36  36  36  36  36  36  36  36  36 
 36  36  36  36  36  36  36  36  36  36  36  36  36  36  36  36  36  36  36  36  36  36  36  36  36  36  36  35  35  35  35  35  36  35  35  35  35  35  35  35  35  35  35  35  42  42  42  42  42  35  42  35  61 111  61  33  43  43  45  33 111  35  35  35  35  35  35  35  35  35  35  59 126 126 126  58  59  43  43  61  61  33  61 111  61  43  33  43  43  43  43  61  43  61  58 126  43  58  45  59  45  45 126 126  45 126 126  58  58  59 126  44  64  64  36  64  64  36  36  36  36  36  36  36  36  36  36  36  36 
 36  36  36  36  36  35  35  35  35  35  36  36  36  36  36  36  36  36  36  36  36  36  36  36  36  36  36  36  35  35  35  42  42  42  35  42  42  35  35  35  35  35  35  35  35  35  42  42  42  42  42  42  35  43  61 111 111  43  59  37  33  36  35  35  36  36  35  43  59  59  58  59 111 126  58  59  59  43  61  33 111 111  37 111  33  33  33  33  33 111  61  43  33  45 126 126 126  45  45   0  42  37  42  42  42  37  64  64  64  64  64  64  64  64  64  36  36  36  36  36  36  64  64  64  36  36  36  36  36 
 36  36  36  36  36  35  35  35  35  35  35  35  36  36  36  36  36  36  36  64  36  36  36  36  36  36  35  35  35  35  42  42  42  42  42  42  35  35  35  35  36  36  36  36  35  35  35  35  35  35  35  35  36  42  43  58  33 111  33  33  59  58  45  46  45  37  45 126  58  59  59  59  59  43  61  33  61  61 111 111  37  37  42  33 111  37  37  42 111  59  44  44 126  64  64  64  36  35  33 111  37  42  37  33  35  36  36  36  36  35  42  42  37 111 111  64  64  64  64  64  64  64  64  64  36  36  36  36  36 
 36  36  36  36  36  36  36  36  36  36  36  36  36  36  36  36  36  36  36  36  36  36  36  36  36  36  36  35  35  35  35  35  35  35  35  35  35  35  36  36  36  36  36  36  36  36  36  36  36  36  36  36  36  43  35  64  64  37  43  33  37  33  45  59 126  58  59  43  43  61  61  61  61  33  33  61  33  61  33  37  37  37  37  37  42  42  45  36  35  35  42  42  37 111 111 111  33 111 111  37  33 111  33  33  33  37  35  36  36  36  36  35  42  42  64  64  64  64  64  64  64  64  64  64  64  64  64  64  36 
 36  36  36  36  36  36  36  36  36  36  36  36  36  36  36  36  36  36  36  64  36  36  36  36  36  36  35  35  35  35  35  35  35  35  35  35  36  36  36  36  36  36  36  36  36  36  64  64  64  64  64  64  64  64  64  64  58 126  33  58  58  59 126  33  35  42 111  33  61  61  43  61  33  33 111 111 111  37  37  37  42  42  42  59 111 111 111  33  61  61  61  61  61  61  61  61  58  36  35  42  35  35  42  36  36  36  36  35  35  35  37  37  37  64  64  64  64  64  64  64  64  64  64  64  64  64  64  64  64 
 64  64  64  64  64  64  64  64  64  64  64  64  64  36  36  36  36  36  36  36  36  36  36  36  36  36  36  36  36  36  35  36  35  36  36  36  36  36  36  36  36  64  64  64  64  64  64  64  64  64  64  64  64  36 126 126 126 126 126 126  45  45  45  33 126  58 126  59  58  43  61  33  33 111  37  37  37  42  42  35  35  35  42  37  37  61  61  61  43  59  59  58  59  59  59  43  43  61  43  43  64  36  36  36  36  36  36  42  33  61  61  61  64  64  64  64  64  64  64  64  64  64  64  64  64  64  64  64  64 
 64  64  64  64  64  64  64  64  64  64  64  64  64  64  64  64  64  64  36  36  36  36  36  36  36  36  36  36  36  36  36  36  36  36  36  36  36  36  36  64  64  64  64  64  64  64  64  64  64  64  64  58 126 126  58  58  58  58  59  43  43  43  58  58  43  61  43  43  43  43  43  61  33 111 111  43  61 111  37  37 111 111  61  59  43  59  43  59  59  59  59  59  58  58  59  59  43  43  43  43  43  37  37  37 111  35  36  64  64  64  64  64  64  64  64  64  64  64  64  64  64  64  64  64  64  64  64  64  64 
 64  64  64  64  64  64  64  64  64  64  64  64  64  64  64  64  64  64  64  64  64  64  64  64  64  36  36  36  36  36  36  36  64  64  64  64  64  64  64  64  64  64  64  64  64  64  64  64  43  58  59  59  59  43  43  45  45  58  64  64  64  43  59  59  43  59  59  58  43  61  61  61  61  61  61  59  45 126 126  58  58  58  58 126 126  58  59  58  59  59  58  58  59  59  59  59  59  43  43  59  59  44  64  36  36  64  35  64  64  64  64  64  64  64  64  64  64  64  64  64  64  64  64  64  64  64  64  64  64 
 64  64  64  64  64  64  64  64  64  64  64  64  64  64  64  64  64  64  64  64  64  64  64  64  64  64  64  64  64  64  64  64  64  64  64  64  64  64  64  64  64  64  64  64  64  64  64  33  43  43  43 126  36  64  64  64  64  64  64  59  59  59  58  58  59  43  43  58  59  58  59  59  59  43 126 126  45 126 126 126 126  58  58  58  58  58  59  58  58  58  59  58  59  59  59  43  59  43  61  61  43  64  64  64  35  35  36  64  64  64  64  64  64  64  64  64  64  64  64  64  64  64  64  64  64  64  64  64  64 
 64  64  64  64  64  64  64  64  64  64  64  64  64  64  64  64  64  64  64  64  64  64  64  64  64  64  64  64  64  64  64  64  64  64  64  64  64  64  64  64  64  64  64  64  64  64  64  64  64  64  64  64  64  64  64  64  36  59  58  58  59  59  59  58  59  58  58  58  58  58  58  59  43  43  37 126  45  45 126  58  58 126  58  58  58  59  59  59  59  59  59  43  43  59  61  61  59  43  43  58  64  64  64  64  64  64  64  64  64  64  64  64  64  64  64  64  64  64  64  64  64  64  64  64  64  64  64  64  64 
 64  64  64  64  64  64  64  64  64  64  64  64  64  64  64  64  64  64  64  64  64  64  64  64  64  64  64  64  64  64  64  64  64  64  64  36  36  36  36  36  36  36  36  36  36  36  36  36  36  36  36  36  36  36  64  59  58  59  58  58  59  58  59  58  58  58  59  58  59  59  43  61  61  59  64  36 126  58 126  58  58  59  59  59  59  59  59  43  43  43  43  43  43  43  33  58  64  64  64  64  64  64  64  64  64  64  64  64  64  36  36  36  36  36  36  36  36  36  36  36  36  36  36  36  36  36  36  36  36 
 36  36  36  36  36  36  36  36  36  36  36  36  36  36  36  36  36  36  36  36  36  36  36  36  36  36  36  36  36  36  36  36  36  36  36  36  36  36  36  36  36  36  36  36  36  36  35  35  35  36  35  36  36  59  43  59  59  58  59  59  58  59  59  43  43  43  59  61  43  43  61  43  61  33  36  36  36  36  36  35 126  59  61  43  61  61  61  61  61  33  61  43  36  64  36  64  64  64  64  64  64  64  64  64  64  64  36  36  36  36  36  36  36  36  36  36  36  36  36  36  36  36  36  36  36  35  35  35  36 
 36  35  36  36  36  36  36  36  35  36  36  36  36  36  36  36  36  36  36  36  36  36  36  36  35  35  35  35  35  35  35  35  35  35  35  35  35  35  35  35  35  35  35  35  35  35  35  35  35  35  35  35  36  59  59  59  43  59  43  43  59  43  43  43  43  43  61  61  61  43  43  61  61  36  35  35  35  35  35  36  36  36  61  61  61  33  42  36  36  36  36  36  36  36  64  64  64  64  64  64  64  64  64  64  35  36  36  36  36  36  35  36  36  35  35  35  35  35  35  35  35  35  35  35  35  35  35  35  35 
 35  35  35  35  35  35  35  35  35  35  35  35  35  35  35  35  35  35  35  35  35  35  35  35  35  35  35  35  35  35  35  35  35  35  35  35  35  35  35  35  42  42  42  42  42  35  42  42  42  42  35 126  59  43  61  61  61  43  43  43  43  33  61  61  61  43  61  61  43  33  61  35  35  35  35  35  35  35  35  35  35  35  35  35  35  35  35  36  36  36  36  64  64  64  64  64  64  64  64  64  64  35  35  35  36  35  35  35  35  35  35  35  35  35  35  35  35  35  35  35  35  42  42  42  42  35  35  35  35 
 35  35  35  35  35  35  35  35  35  35  35  35  35  35  35  42  35  42  35  35  42  42  42  42  42  42  42  42  42  42  42  42  42  42  42  42  42  42  42  42  42  42  42  42  42  42  42  35  35  35  35  37  43  61  61  61  33  61  43  61  61  61  61  61  61  61  61  43  43  35  35  35  42  42  42  42  42  42  42  42  42  42  42  42  42  42  42  36  36  36  36  36  36  64  64  64  36  36  35  42  42  42  42  35  35  35  35  35  35  35  35  35  35  35  35  35  35  35  35  42  42  42  42  42  42  42  42  35  42 
 42  42  35  35  35  35  35  42  42  42  42  42  42  42  42  42  42  42  42  42  42  42  42  42  42  42  42  42  42  42  42  42  42  42  42  42  42  42  42  42  42  42  42  42  42  42  42  42  42  42  42  42  42  42  61  33  33  43  43  61  61  61  43  43  61  42  42  42  42  42  42  42  42  42  42  42  42  42  37  42  42  42  42  42  42  42 111  42  36  36  36  36  36  35  42  42  42  42  42  42  42  42  35  35  35  35  35  35  35  35  35  35  35  35  42  42  42  42  42  42  42  42  42  42  42  42  42  42  42 
 42  42  35  42  42  42  42  42  42  42  42  42  42  42  42  42  42  42  42  42  42  42  42  42  37  37  37  42  42  37  37  42  37  37  37  37  37  37  37  37  42  42  42  42  42  42  42  42  42  42  42  42  42  42  42  42  42  43  61  42  42  42  42  37  42  42  37  42  42  42  37  42  42  42  42  42  42  42  37  37  37  42  37  37  37  37  37  37  37  42  37  37  42  42  42  42  42  42  42  42  42  35  35  35  35  35  35  35  42  42  42  42  42  42  42  42  42  42  42  42  42  42  42  42  42  42  42  42  42 
 42  42  42  42  42  42  42  42  42  42  42  42  42  42  42  42  37  42  42  37  37  37  37  37  37  37  37  37  37  37  37  37  37  37  37  37  37  37  37  37  37  37  37  37  42  42  42  42  37  37  37  37  37  37  37  37  37  37  37  37  37  37  37  37  37  37  37  37  37  37  37  37  37  37  37  37  37  37  37  37  37  37  37  37  37  37  42  37  37  37  42  37  37  37  42  42  42  42  42  42  42  42  42  42  42  35  42  42  42  42  42  42  42  42  42  42  42  42  42  42  42  42  42  42  42  42  42  42  42 
 42  42  42  42  42  42  42  42  42  42  37  37  37  37  37  37  37  37  37  37  37  37  37  37  37  37  37  37  37  37  37  37  42  37  37  37  37  37  37  37  37  37  37  37  37  37  37  37  37  37  37  37  37  37  37  37  37  37  37  37  37  37  37  37  37  37  37  37  37  37  37  37  37  37  37  37  37  37  37  37  37  37  37  37  37  37  37  37  37  37  37  37  37  37  37  37  37  37  37 